<svg xmlns="http://www.w3.org/2000/svg" width="23.227" height="23.226" viewBox="0 0 23.227 23.226">
  <g id="Group_347" data-name="Group 347" transform="translate(0.145 0.086)">
    <path id="Path_376" data-name="Path 376" d="M18.161,1.069h0a5.9,5.9,0,0,0-7.028,2.683L8.151,9.05a2.816,2.816,0,0,0,.474,3.369l1.949,1.955a2.816,2.816,0,0,0,3.369.471l5.3-2.981a5.9,5.9,0,0,0,2.683-7.029h0a5.989,5.989,0,0,0-3.764-3.765Z" fill="none" stroke="#549e87" stroke-linecap="round" stroke-linejoin="round" stroke-width="1.437"/>
    <path id="Path_377" data-name="Path 377" d="M8.125,17.859a3.283,3.283,0,0,0-.56-.437l3.029-3.029L8.6,12.4l-3.03,3.029a3.155,3.155,0,0,0-.437-.56,2.653,2.653,0,0,0-3.724-.262,2.655,2.655,0,0,0,.261,3.725c.6.6,1.989,1,2.484.505-.494.494-.1,1.886.506,2.484a2.653,2.653,0,0,0,3.724.262,2.655,2.655,0,0,0-.261-3.724Z" fill="none" stroke="#549e87" stroke-linecap="round" stroke-linejoin="round" stroke-width="1.437"/>
  </g>
</svg>
