<svg xmlns="http://www.w3.org/2000/svg" width="41.647" height="27.791" viewBox="0 0 41.647 27.791">
  <g id="Group_349" data-name="Group 349" transform="matrix(0.985, 0.174, -0.174, 0.985, 7300.803, 3566.491)">
    <g id="Path_405" data-name="Path 405" transform="translate(-8090.346 -2497.054)" fill="#549e87">
      <path d="M 304.9149169921875 264.2051696777344 L 304.9148864746094 264.2051696777344 C 304.7714233398438 264.2051086425781 304.6357421875 264.1597595214844 304.5225219726562 264.0740051269531 L 302.1069946289062 262.2744445800781 C 301.8193054199219 262.05908203125 301.7593383789062 261.6481323242188 301.9730834960938 261.3582458496094 C 302.0948791503906 261.1920471191406 302.2911682128906 261.0926818847656 302.4979248046875 261.0926818847656 C 302.6407470703125 261.0926818847656 302.7766723632812 261.1382751464844 302.8910217285156 261.2245178222656 L 305.3067016601562 263.0251770019531 C 305.5950012207031 263.2399291992188 305.6550598144531 263.6508178710938 305.4405517578125 263.9411010742188 C 305.3182678222656 264.1064758300781 305.1217651367188 264.2051696777344 304.9149169921875 264.2051696777344 Z" stroke="none"/>
      <path d="M 304.9149169921875 264.1051635742188 C 305.0842590332031 264.1051635742188 305.2518615722656 264.028076171875 305.3601379394531 263.8816833496094 C 305.5420227050781 263.6355285644531 305.4922485351562 263.2880859375 305.2469482421875 263.1053466796875 L 302.830810546875 261.3043518066406 C 302.5855407714844 261.119384765625 302.2357482910156 261.1690979003906 302.0535583496094 261.4175720214844 C 301.8722534179688 261.6634826660156 301.9214477539062 262.0106201171875 302.166748046875 262.1942443847656 L 304.5828857421875 263.9942932128906 C 304.682373046875 264.0696411132812 304.7981872558594 264.1051330566406 304.9148559570312 264.1051330566406 L 304.9149169921875 264.1051635742188 M 304.9149169921875 264.30517578125 L 304.9148559570312 264.30517578125 C 304.7494201660156 264.3051147460938 304.5928955078125 264.2527465820312 304.4621276855469 264.1537170410156 L 302.0472412109375 262.3546142578125 C 301.715576171875 262.1063537597656 301.6463317871094 261.6328735351562 301.892578125 261.2988891601562 C 302.0329895019531 261.1072998046875 302.2594299316406 260.99267578125 302.4979248046875 260.99267578125 C 302.6626586914062 260.99267578125 302.8194274902344 261.0452270507812 302.9512634277344 261.1446838378906 L 305.3664855957031 262.9450073242188 C 305.6987915039062 263.1925354003906 305.7681274414062 263.6660766601562 305.52099609375 264.0005493164062 C 305.3798828125 264.1913146972656 305.1533508300781 264.30517578125 304.9149169921875 264.30517578125 Z" stroke="none" fill="#549e87"/>
    </g>
    <g id="Path_410" data-name="Path 410" transform="translate(-8085.507 -2499.675)" fill="#549e87">
      <path d="M 304.9149169921875 264.2051696777344 L 304.9148864746094 264.2051696777344 C 304.7714233398438 264.2051086425781 304.6357421875 264.1597595214844 304.5225219726562 264.0740051269531 L 302.1069946289062 262.2744445800781 C 301.8193054199219 262.05908203125 301.7593383789062 261.6481323242188 301.9730834960938 261.3582458496094 C 302.0948791503906 261.1920471191406 302.2911682128906 261.0926818847656 302.4979248046875 261.0926818847656 C 302.6407470703125 261.0926818847656 302.7766723632812 261.1382751464844 302.8910217285156 261.2245178222656 L 305.3067016601562 263.0251770019531 C 305.5950012207031 263.2399291992188 305.6550598144531 263.6508178710938 305.4405517578125 263.9411010742188 C 305.3182678222656 264.1064758300781 305.1217651367188 264.2051696777344 304.9149169921875 264.2051696777344 Z" stroke="none"/>
      <path d="M 304.9149169921875 264.1051635742188 C 305.0842590332031 264.1051635742188 305.2518615722656 264.028076171875 305.3601379394531 263.8816833496094 C 305.5420227050781 263.6355285644531 305.4922485351562 263.2880859375 305.2469482421875 263.1053466796875 L 302.830810546875 261.3043518066406 C 302.5855407714844 261.119384765625 302.2357482910156 261.1690979003906 302.0535583496094 261.4175720214844 C 301.8722534179688 261.6634826660156 301.9214477539062 262.0106201171875 302.166748046875 262.1942443847656 L 304.5828857421875 263.9942932128906 C 304.682373046875 264.0696411132812 304.7981872558594 264.1051330566406 304.9148559570312 264.1051330566406 L 304.9149169921875 264.1051635742188 M 304.9149169921875 264.30517578125 L 304.9148559570312 264.30517578125 C 304.7494201660156 264.3051147460938 304.5928955078125 264.2527465820312 304.4621276855469 264.1537170410156 L 302.0472412109375 262.3546142578125 C 301.715576171875 262.1063537597656 301.6463317871094 261.6328735351562 301.892578125 261.2988891601562 C 302.0329895019531 261.1072998046875 302.2594299316406 260.99267578125 302.4979248046875 260.99267578125 C 302.6626586914062 260.99267578125 302.8194274902344 261.0452270507812 302.9512634277344 261.1446838378906 L 305.3664855957031 262.9450073242188 C 305.6987915039062 263.1925354003906 305.7681274414062 263.6660766601562 305.52099609375 264.0005493164062 C 305.3798828125 264.1913146972656 305.1533508300781 264.30517578125 304.9149169921875 264.30517578125 Z" stroke="none" fill="#549e87"/>
    </g>
    <g id="Path_407" data-name="Path 407" transform="translate(-8253.126 -2415.538)" fill="#549e87">
      <path d="M 480.27001953125 181.6220855712891 L 480.1700134277344 181.6220855712891 L 480.1700134277344 181.6142883300781 C 480.0322875976562 181.5934600830078 479.9057922363281 181.5296478271484 479.8064880371094 181.4294891357422 C 474.9156494140625 176.5369110107422 476.3160400390625 171.2673492431641 476.3780517578125 171.04541015625 C 476.4568176269531 170.7615051269531 476.7138061523438 170.5631103515625 477.0028991699219 170.5631103515625 C 477.0640869140625 170.5631103515625 477.1255187988281 170.5718994140625 477.1854248046875 170.5892486572266 C 477.5315856933594 170.6830291748047 477.737548828125 171.0439147949219 477.6429138183594 171.3932495117188 C 477.5912475585938 171.5868072509766 476.4247436523438 176.1919097900391 480.7344665527344 180.5030364990234 C 480.989990234375 180.7585144042969 480.9900207519531 181.1745147705078 480.7345275878906 181.4303588867188 C 480.6097412109375 181.5541076660156 480.4449157714844 181.6220855712891 480.27001953125 181.6220855712891 Z" stroke="none"/>
      <path d="M 480.27001953125 181.5220794677734 C 480.4111938476562 181.5220794677734 480.5543212890625 181.4682464599609 480.6637573242188 181.3596954345703 C 480.8805541992188 181.1426086425781 480.8805541992188 180.7904968261719 480.6637573242188 180.57373046875 C 476.3005981445312 176.2091674804688 477.4942626953125 171.5623474121094 477.54638671875 171.3670959472656 C 477.6264038085938 171.0717468261719 477.4529418945312 170.7653350830078 477.1575927734375 170.685302734375 C 476.8561096191406 170.5979919433594 476.5564270019531 170.7766876220703 476.474365234375 171.0723266601562 C 476.4129638671875 171.2920684814453 475.0409545898438 176.5208282470703 479.8775024414062 181.3590850830078 C 479.9854125976562 181.4679412841797 480.1259765625 181.5217742919922 480.27001953125 181.5217742919922 L 480.27001953125 181.5220794677734 M 480.27001953125 181.7220764160156 L 480.0700378417969 181.7220764160156 L 480.0700378417969 181.6952972412109 C 479.9442443847656 181.6611175537109 479.829345703125 181.5945739746094 479.7354736328125 181.4998779296875 C 474.8040771484375 176.5667572021484 476.2190856933594 171.2427368164062 476.28173828125 171.0185089111328 C 476.3724365234375 170.6916351318359 476.6690368652344 170.4631042480469 477.0028991699219 170.4631042480469 C 477.0735168457031 170.4631042480469 477.144287109375 170.4732360839844 477.2132263183594 170.4931945800781 C 477.6109313964844 170.6009368896484 477.8484802246094 171.016845703125 477.7394104003906 171.4193878173828 C 477.6884460449219 171.6103210449219 476.5357666015625 176.1615142822266 480.8052062988281 180.4323272705078 C 481.0996704101562 180.7267608642578 481.0997314453125 181.2061767578125 480.8052673339844 181.5010223388672 C 480.6613159179688 181.6438140869141 480.4714660644531 181.7220764160156 480.27001953125 181.7220764160156 Z" stroke="none" fill="#549e87"/>
    </g>
    <g id="Path_408" data-name="Path 408" transform="translate(-7899.531 -2414.189)" fill="#549e87">
      <path d="M 99.29299926757812 190.3352813720703 L 99.26094818115234 190.3352813720703 L 99.25884246826172 190.3337707519531 C 99.20533752441406 190.3309020996094 99.15032958984375 190.3212280273438 99.09792327880859 190.3053741455078 C 98.87374877929688 190.2351226806641 98.70394897460938 190.0504913330078 98.65384674072266 189.8232269287109 C 98.2716064453125 188.1430206298828 99.1502685546875 184.7650909423828 99.57173156738281 183.3098297119141 C 96.60014343261719 181.5357360839844 94.35885620117188 179.0984344482422 94.26422882080078 178.9948120117188 C 94.09663391113281 178.8108673095703 94.04770660400391 178.5426483154297 94.13950347900391 178.3114013671875 C 94.23120880126953 178.0801239013672 94.45038604736328 177.9182891845703 94.6978759765625 177.8991394042969 C 95.41157531738281 177.8433380126953 96.113037109375 177.8150329589844 96.78268432617188 177.8150329589844 C 100.1920471191406 177.8150329589844 102.398193359375 178.5215454101562 103.2490615844727 178.8550567626953 C 105.5214614868164 176.1781463623047 110.116569519043 172.7208251953125 115.3226699829102 170.9804534912109 C 118.9383239746094 169.7714691162109 122.6083984375 169.1056518554688 125.6567993164062 169.1056518554688 C 128.7615814208984 169.1056518554688 131.0061492919922 169.77197265625 132.1478424072266 171.0325927734375 C 132.3695526123047 171.2779235839844 132.3744812011719 171.6512908935547 132.1593933105469 171.9011535644531 L 130.1746826171875 174.2066650390625 L 131.8062896728516 174.3494262695312 C 132.0296020507812 174.3687133789062 132.2256011962891 174.4996643066406 132.3304595947266 174.69970703125 C 132.4336395263672 174.8987426757812 132.4290313720703 175.1334075927734 132.3183135986328 175.3278503417969 C 130.6045684814453 178.3288116455078 125.5892639160156 181.5755920410156 119.5411987304688 183.5994873046875 C 115.9250335693359 184.8082733154297 112.2568283081055 185.4739837646484 109.2122650146484 185.4739837646484 C 107.7078704833984 185.4739837646484 106.3960113525391 185.31640625 105.3095016479492 185.005615234375 L 99.73802947998047 190.1611328125 C 99.61775970458984 190.2733459472656 99.45960998535156 190.3352813720703 99.29299926757812 190.3352813720703 Z M 96.26166534423828 179.1331634521484 C 97.3116455078125 180.1147918701172 98.87928771972656 181.4285888671875 100.6687393188477 182.4291534423828 C 100.938346862793 182.5798034667969 101.0676574707031 182.9029998779297 100.9761657714844 183.1976165771484 C 100.6516342163086 184.2322845458984 100.0306015014648 186.5492095947266 99.89472198486328 188.2288055419922 L 104.6960067749023 183.78564453125 C 104.8163986206055 183.6736907958984 104.9742050170898 183.6119384765625 105.1401748657227 183.6119384765625 C 105.2115478515625 183.6119384765625 105.2823181152344 183.6233825683594 105.3505401611328 183.6459503173828 C 106.3731689453125 183.9884643554688 107.6711502075195 184.1620635986328 109.2087860107422 184.1620635986328 C 112.1200180053711 184.1620635986328 115.6410980224609 183.5200805664062 119.1260375976562 182.3543548583984 C 124.2240524291992 180.6500549316406 128.5845489501953 178.0584106445312 130.5749664306641 175.5592498779297 L 128.7845916748047 175.4024353027344 C 128.5379791259766 175.3797454833984 128.3279876708984 175.223876953125 128.2361145019531 174.99560546875 C 128.1417694091797 174.7678070068359 128.1842498779297 174.5089416503906 128.3473358154297 174.3209533691406 L 130.74462890625 171.5346832275391 C 129.7390747070312 170.8137664794922 127.9396209716797 170.4178924560547 125.6570129394531 170.4178924560547 C 122.7461929321289 170.4178924560547 119.2238082885742 171.0600891113281 115.7386856079102 172.2261810302734 C 110.4948883056641 173.9782409667969 105.9570083618164 177.5149536132812 103.9598083496094 180.0595703125 C 103.8339385986328 180.2184753417969 103.6455764770508 180.3094024658203 103.4427490234375 180.3094177246094 C 103.3394393920898 180.3094329833984 103.2363739013672 180.2845764160156 103.1446990966797 180.2375335693359 C 102.9086151123047 180.1233978271484 100.7344665527344 179.1270751953125 96.78302764892578 179.1270751953125 C 96.61151123046875 179.1274719238281 96.43692016601562 179.1295166015625 96.26166534423828 179.1331634521484 Z" stroke="none"/>
      <path d="M 99.29299926757812 190.2352752685547 C 99.43149566650391 190.2352752685547 99.56622314453125 190.1846466064453 99.67010498046875 190.0877380371094 L 105.2830352783203 184.8938446044922 C 106.3731002807617 185.2130584716797 107.6924362182617 185.3739776611328 109.2096481323242 185.3739776611328 L 109.2122650146484 185.3739776611328 C 112.2466659545898 185.3739776611328 115.9055557250977 184.7093505859375 119.5094680786133 183.5046539306641 C 125.5331497192383 181.4889221191406 130.5283050537109 178.2606964111328 132.2314147949219 175.2783660888672 C 132.3245391845703 175.1148223876953 132.3286285400391 174.9134521484375 132.2418975830078 174.7461395263672 C 132.1537322998047 174.5779571533203 131.9861297607422 174.46533203125 131.7975616455078 174.4490356445312 L 129.9716033935547 174.2892761230469 L 132.0836029052734 171.8359222412109 C 132.2669525146484 171.6229248046875 132.2622833251953 171.3083648681641 132.07373046875 171.0997161865234 C 130.9510498046875 169.860107421875 128.7325439453125 169.2056579589844 125.6567993164062 169.2056579589844 C 122.6220932006836 169.2056579589844 118.9614944458008 169.8691711425781 115.354377746582 171.0752868652344 C 110.0974655151367 172.8326568603516 105.5042190551758 176.3265533447266 103.2790298461914 178.9745635986328 C 102.4130401611328 178.626220703125 100.2230987548828 177.9150390625 96.78268432617188 177.9150390625 C 96.10726928710938 177.9150390625 95.40892028808594 177.94384765625 94.70558929443359 177.9988403320312 C 94.49491882324219 178.01513671875 94.31101989746094 178.150146484375 94.23244476318359 178.3483123779297 C 94.15446472167969 178.5447387695312 94.19490814208984 178.7702484130859 94.33807373046875 178.9273834228516 C 94.43611907958984 179.0347442626953 96.67790985107422 181.4822845458984 99.68936920166016 183.2634124755859 C 99.31602478027344 184.5420837402344 98.36013031005859 188.0813293457031 98.75150299072266 189.8016967773438 C 98.79428863525391 189.9957733154297 98.93744659423828 190.1502838134766 99.12688446044922 190.2096557617188 C 99.18071746826172 190.2259521484375 99.23745727539062 190.2346801757812 99.29216003417969 190.2346801757812 L 99.29299926757812 190.2352752685547 M 96.01617431640625 179.0391082763672 L 96.01656341552734 179.0392913818359 C 96.27496337890625 179.0317230224609 96.53132629394531 179.0276489257812 96.78302764892578 179.0270690917969 C 100.9459228515625 179.0270690917969 103.1685104370117 180.138671875 103.1903381347656 180.1485595703125 C 103.4251708984375 180.2690277099609 103.7158660888672 180.2064971923828 103.8811492919922 179.9978332519531 C 105.8865051269531 177.4428100585938 110.4423675537109 173.8903503417969 115.7069549560547 172.13134765625 C 119.2031478881836 170.9615478515625 122.7377853393555 170.3178863525391 125.6570129394531 170.3178863525391 C 128.0539093017578 170.3178863525391 129.8818969726562 170.7412261962891 130.8904724121094 171.5184936523438 L 128.4228668212891 174.3864898681641 C 128.2855224609375 174.5447845458984 128.2488708496094 174.7650451660156 128.3288879394531 174.9582824707031 C 128.4068756103516 175.1520690917969 128.5875854492188 175.2838897705078 128.7933197021484 175.3028106689453 L 130.7667846679688 175.4756622314453 C 128.8307037353516 178.0200500488281 124.41943359375 180.6901702880859 119.1577529907227 182.4492034912109 C 115.6623764038086 183.618408203125 112.1306457519531 184.2620697021484 109.2114028930664 184.2620697021484 L 109.2087860107422 184.2620697021484 C 107.6615676879883 184.2620697021484 106.3504028320312 184.0863037109375 105.3191299438477 183.7408905029297 C 105.125617980957 183.6768951416016 104.9131927490234 183.7202301025391 104.7639236450195 183.8590240478516 L 99.77808380126953 188.4729919433594 C 99.86859893798828 186.7552642822266 100.557373046875 184.1986541748047 100.8806686401367 183.16796875 C 100.9586486816406 182.9168395996094 100.8501052856445 182.6450500488281 100.6199340820312 182.5164337158203 C 98.66680908203125 181.4243621826172 96.98020935058594 179.9562530517578 96.01617431640625 179.0391082763672 M 99.29299926757812 190.4352722167969 L 99.22890472412109 190.4352722167969 L 99.22348785400391 190.4314117431641 C 99.17163848876953 190.4265289306641 99.11920166015625 190.4162902832031 99.06895446777344 190.4010925292969 C 98.80973815917969 190.3198547363281 98.61398315429688 190.1069030761719 98.55619812011719 189.8447418212891 C 98.17536163330078 188.1707611083984 99.02320098876953 184.8566436767578 99.45432281494141 183.3560333251953 C 96.55547332763672 181.6106109619141 94.42679595947266 179.3211364746094 94.19038391113281 179.0622406005859 C 93.99715423583984 178.8501739501953 93.94075775146484 178.5410308837891 94.04655456542969 178.2745208740234 C 94.15222930908203 178.0080261230469 94.40486907958984 177.8215026855469 94.69015502929688 177.7994384765625 C 95.40636444091797 177.7434387207031 96.11044311523438 177.7150421142578 96.78268432617188 177.7150421142578 C 100.1233062744141 177.7150421142578 102.3174057006836 178.3911590576172 103.2190093994141 178.7361907958984 C 105.5161514282227 176.0562896728516 110.1015243530273 172.6204223632812 115.2909698486328 170.8856048583984 C 118.9165802001953 169.6733093261719 122.597900390625 169.0056610107422 125.6567993164062 169.0056610107422 C 128.7906036376953 169.0056610107422 131.060791015625 169.683349609375 132.2219696044922 170.9654541015625 C 132.4774627685547 171.2481842041016 132.4830932617188 171.6784210205078 132.2351837158203 171.9664001464844 L 130.3777465820312 174.1240539550781 L 131.8150024414062 174.2498016357422 C 132.0723724365234 174.2720336914062 132.2982635498047 174.4228820800781 132.4190368652344 174.6532745361328 C 132.5380859375 174.8829498291016 132.5327606201172 175.1533050537109 132.4052124023438 175.3773345947266 C 130.6799011230469 178.3985443115234 125.6429901123047 181.6630706787109 119.5729370117188 183.6943206787109 C 115.9467849731445 184.9064483642578 112.2673187255859 185.573974609375 109.2122650146484 185.573974609375 C 107.723503112793 185.573974609375 106.4209899902344 185.4202880859375 105.3362503051758 185.1170959472656 L 99.80594635009766 190.2345275878906 C 99.66739654541016 190.3637847900391 99.48501586914062 190.4352722167969 99.29299926757812 190.4352722167969 Z M 96.51226043701172 179.2290344238281 C 97.55297088623047 180.1847839355469 99.03739166259766 181.4024353027344 100.7175445556641 182.3418579101562 C 101.0281372070312 182.5154113769531 101.1770858764648 182.8878021240234 101.071662902832 183.2272796630859 C 100.7646255493164 184.2062072753906 100.1913757324219 186.3357391357422 100.0185623168945 187.9779510498047 L 104.6280899047852 183.7122344970703 C 104.7668762207031 183.5831909179688 104.9488677978516 183.5119323730469 105.1401748657227 183.5119323730469 C 105.2222366333008 183.5119323730469 105.3035736083984 183.5250854492188 105.381950378418 183.5510101318359 C 106.3946685791016 183.8901977539062 107.6819686889648 184.0620727539062 109.2087860107422 184.0620727539062 C 112.1095199584961 184.0620727539062 115.6193389892578 183.4219207763672 119.0943145751953 182.259521484375 C 124.076057434082 180.5940856933594 128.3484649658203 178.0818328857422 130.3783111572266 175.6423950195312 L 128.7758636474609 175.5020446777344 C 128.4913177490234 175.4758758544922 128.2492828369141 175.2961578369141 128.1433410644531 175.0329437255859 C 128.0347900390625 174.7708435058594 128.0837249755859 174.4721984863281 128.2717895507812 174.2554168701172 L 130.5963439941406 171.5536956787109 C 129.5922241210938 170.8844146728516 127.8521041870117 170.5178833007812 125.6570129394531 170.5178833007812 C 122.756706237793 170.5178833007812 119.2455749511719 171.1582489013672 115.7704162597656 172.3210144042969 C 110.5461273193359 174.0665435791016 106.0267486572266 177.5880584716797 104.0384750366211 180.1213073730469 C 103.8932342529297 180.3046417236328 103.6763076782227 180.4094085693359 103.4427490234375 180.409423828125 C 103.3244857788086 180.409423828125 103.2065124511719 180.3811645507812 103.1013717651367 180.3276977539062 L 103.0999755859375 180.3270263671875 C 102.8671875 180.2144470214844 100.7121963500977 179.2270660400391 96.78302764892578 179.2270660400391 C 96.69352722167969 179.2272796630859 96.60314178466797 179.2279357910156 96.51226043701172 179.2290344238281 Z" stroke="none" fill="#549e87"/>
    </g>
    <path id="Path_409" data-name="Path 409" d="M509.761,196.806a1.5,1.5,0,0,1-1.387-2.1,1.528,1.528,0,0,1,1.973-.8,1.506,1.506,0,0,1-.586,2.893Zm0-1.9a.394.394,0,0,0-.364.241.4.4,0,0,0,.208.517.394.394,0,0,0,.521-.51.388.388,0,0,0-.213-.216.38.38,0,0,0-.152-.032Z" transform="translate(-8282.745 -2436.948)" fill="#549e87"/>
  </g>
</svg>
