<svg xmlns="http://www.w3.org/2000/svg" width="23" height="23" viewBox="0 0 23 23">
  <g id="Group_348" data-name="Group 348" transform="translate(0)">
    <path id="Path_365" data-name="Path 365" d="M22.281,6.469h0a5.75,5.75,0,0,0-5.75-5.75H9.344A8.625,8.625,0,0,0,.719,9.344V17.25a5.032,5.032,0,0,0,5.03,5.031h0a5.032,5.032,0,0,0,5.031-5.03v-.72a4.312,4.312,0,0,1,4.312-4.312h1.437A5.75,5.75,0,0,0,22.281,6.469Z" fill="none" stroke="#549e87" stroke-linecap="round" stroke-linejoin="round" stroke-width="1.437"/>
    <circle id="Ellipse_19" data-name="Ellipse 19" cx="2.156" cy="2.156" r="2.156" transform="translate(3.594 15.094)" fill="none" stroke="#549e87" stroke-linecap="round" stroke-linejoin="round" stroke-width="1.437"/>
    <path id="Path_366" data-name="Path 366" d="M16.531,3.594H9.344a5.75,5.75,0,0,0-5.75,5.75v1.437a1.437,1.437,0,0,0,1.437,1.437h0a1.437,1.437,0,0,0,1.437-1.437h0A1.437,1.437,0,0,1,7.906,9.344h8.625a2.875,2.875,0,0,0,2.875-2.875h0A2.875,2.875,0,0,0,16.531,3.594Z" fill="none" stroke="#549e87" stroke-linecap="round" stroke-linejoin="round" stroke-width="1.437"/>
  </g>
</svg>
