<svg xmlns="http://www.w3.org/2000/svg" width="17.593" height="27.472" viewBox="0 0 17.593 27.472">
  <path id="noun-hazelnut-3930629" d="M217.612,52.863a1.387,1.387,0,0,0,.209-.713c0-2.008-3.539-5.271-7.685-5.518V44.247a.494.494,0,0,0-.988,0v2.385c-4.147.247-7.9,3.51-7.9,5.518,0,.271.3.5.427.714a11.347,11.347,0,0,0-.427,3.237c0,6.488,3.746,14.324,8.4,14.324a4.06,4.06,0,0,0,.894-.1c4.225-.91,7.5-8.394,7.5-14.224a11.367,11.367,0,0,0-.427-3.238Zm-7.97-5.267c4.079,0,7.192,3.233,7.192,4.554a.4.4,0,0,1-.106.3c-.4.409-1.863.409-2.414.409-.593,0-1.255-.022-1.967-.045-.842-.028-1.753-.057-2.7-.057s-1.863.03-2.7.057c-.712.024-1.373.045-1.966.045h-.251c-.656-.006-1.816-.051-2.167-.412a.386.386,0,0,1-.1-.293c0-1.321,3.113-4.554,7.192-4.554Zm2.005,21.2a12.228,12.228,0,0,0,1.452-5.782v-.988a.494.494,0,0,0-.988,0v.988a11.252,11.252,0,0,1-1.968,6.365h-.008V62.028a.494.494,0,1,0-.988,0v6.385a11.433,11.433,0,0,1-1.976-6.385.494.494,0,1,0-.988,0,12.429,12.429,0,0,0,2.312,7.18c-3.429-1.25-6.263-7.81-6.263-13.107a11.09,11.09,0,0,1,.27-2.553c.015.006.035.007.049.012a3.819,3.819,0,0,0,.756.187c.031,0,.064.008.1.012a9.074,9.074,0,0,0,.941.075l.035,0c.355.01.74.009,1.147,0l.24,0c.383-.01.78-.022,1.2-.035,1.663-.055,3.682-.055,5.344,0,.389.013.761.025,1.117.033.18,0,.354,0,.525.008.118,0,.245,0,.358,0,.073,0,.133,0,.2-.006.206,0,.41-.007.6-.017s.342-.025.5-.041.3-.03.434-.052a4.119,4.119,0,0,0,.485-.12c.076-.023.172-.033.242-.059a11.115,11.115,0,0,1,.269,2.553c0,4.7-2.314,10.748-5.4,12.7Z" transform="translate(-200.845 -43.353)" fill="#f9f0dd" stroke="#f9f0dd" stroke-width="0.8"/>
</svg>
