<svg id="Group_344" data-name="Group 344" xmlns="http://www.w3.org/2000/svg" width="23" height="23" viewBox="0 0 23 23">
  <path id="Path_367" data-name="Path 367" d="M22.259,10.781H10.781A10.062,10.062,0,0,1,.719.719H12.937a9.344,9.344,0,1,1,0,18.687H6.469a4.312,4.312,0,0,1,4.312-4.312h2.875" fill="none" stroke="#549e87" stroke-linecap="round" stroke-linejoin="round" stroke-width="1.437"/>
  <path id="Path_368" data-name="Path 368" d="M13.656,19.378v-8.6c0-2.156-1.437-10.062-5.75-10.062" fill="none" stroke="#549e87" stroke-linecap="round" stroke-linejoin="round" stroke-width="1.437"/>
  <path id="Path_369" data-name="Path 369" d="M13.656,10.781l6.565-6.565" fill="none" stroke="#549e87" stroke-linecap="round" stroke-linejoin="round" stroke-width="1.437"/>
  <path id="Path_370" data-name="Path 370" d="M13.656,10.781l5.888,5.888" fill="none" stroke="#549e87" stroke-linecap="round" stroke-linejoin="round" stroke-width="1.437"/>
  <path id="Path_371" data-name="Path 371" d="M8.266,5.75a.359.359,0,1,1,0-.719" fill="none" stroke="#549e87" stroke-width="1.437"/>
  <path id="Path_372" data-name="Path 372" d="M8.266,5.75a.359.359,0,0,0,0-.719" fill="none" stroke="#549e87" stroke-width="1.437"/>
  <path id="Path_373" data-name="Path 373" d="M6.469,19.406,2.156,16.531v5.75Z" fill="none" stroke="#549e87" stroke-linecap="round" stroke-linejoin="round" stroke-width="1.437"/>
</svg>
